<svg id="visual" viewBox="0 0 900 400" width="900" height="400" xmlns="http://www.w3.org/2000/svg" xmlns:xlink="http://www.w3.org/1999/xlink" version="1.1"><rect x="0" y="0" width="900" height="400" fill="#FCAF3C"></rect><g transform="translate(461.1960161866357 186.82129966257395)"><path d="M96.3 -163C124.3 -150.7 146.2 -123.8 162.4 -94.3C178.7 -64.7 189.3 -32.3 193.5 2.4C197.7 37.2 195.4 74.3 175.1 96.9C154.8 119.4 116.5 127.4 84.3 147C52.1 166.6 26 197.8 -0.7 199C-27.5 200.3 -55 171.6 -91.1 154.3C-127.2 136.9 -171.8 131 -194.9 107.1C-218 83.3 -219.5 41.7 -216.5 1.8C-213.4 -38.2 -205.9 -76.3 -184.8 -103.6C-163.7 -130.9 -129.1 -147.3 -96.1 -156.7C-63 -166.1 -31.5 -168.6 1.3 -170.9C34.2 -173.2 68.3 -175.4 96.3 -163" fill="#dd9425"></path></g></svg>