<svg id="visual" viewBox="0 0 900 600" width="900" height="600" xmlns="http://www.w3.org/2000/svg" xmlns:xlink="http://www.w3.org/1999/xlink" version="1.1"><rect x="0" y="0" width="900" height="600" fill="#001122"></rect><path d="M0 318L30 318.5C60 319 120 320 180 332C240 344 300 367 360 380.2C420 393.3 480 396.7 540 386.8C600 377 660 354 720 351.2C780 348.3 840 365.7 870 374.3L900 383L900 0L870 0C840 0 780 0 720 0C660 0 600 0 540 0C480 0 420 0 360 0C300 0 240 0 180 0C120 0 60 0 30 0L0 0Z" fill="#ffd166"></path><path d="M0 229L30 229.8C60 230.7 120 232.3 180 233.5C240 234.7 300 235.3 360 240.7C420 246 480 256 540 266C600 276 660 286 720 292.3C780 298.7 840 301.3 870 302.7L900 304L900 0L870 0C840 0 780 0 720 0C660 0 600 0 540 0C480 0 420 0 360 0C300 0 240 0 180 0C120 0 60 0 30 0L0 0Z" fill="#ffe09a"></path><path d="M0 235L30 235.2C60 235.3 120 235.7 180 228.2C240 220.7 300 205.3 360 190.5C420 175.7 480 161.3 540 152.3C600 143.3 660 139.7 720 143.5C780 147.3 840 158.7 870 164.3L900 170L900 0L870 0C840 0 780 0 720 0C660 0 600 0 540 0C480 0 420 0 360 0C300 0 240 0 180 0C120 0 60 0 30 0L0 0Z" fill="#ffefcc"></path><path d="M0 66L30 72.8C60 79.7 120 93.3 180 92.8C240 92.3 300 77.7 360 73.8C420 70 480 77 540 89.3C600 101.7 660 119.3 720 127C780 134.7 840 132.3 870 131.2L900 130L900 0L870 0C840 0 780 0 720 0C660 0 600 0 540 0C480 0 420 0 360 0C300 0 240 0 180 0C120 0 60 0 30 0L0 0Z" fill="#ffffff"></path></svg>