<svg id="visual" viewBox="0 0 900 500" width="900" height="500" xmlns="http://www.w3.org/2000/svg" xmlns:xlink="http://www.w3.org/1999/xlink" version="1.1"><rect x="0" y="0" width="900" height="500" fill="#001122"></rect><path d="M0 209L30 203.8C60 198.7 120 188.3 180 177.2C240 166 300 154 360 166.5C420 179 480 216 540 225.8C600 235.7 660 218.3 720 197.8C780 177.3 840 153.7 870 141.8L900 130L900 501L870 501C840 501 780 501 720 501C660 501 600 501 540 501C480 501 420 501 360 501C300 501 240 501 180 501C120 501 60 501 30 501L0 501Z" fill="#FCAF3C" stroke-linecap="round" stroke-linejoin="miter"></path></svg>